<?xml version="1.0" encoding="utf-8"?>
<!-- Generator: Adobe Illustrator 15.1.0, SVG Export Plug-In . SVG Version: 6.00 Build 0)  -->
<!DOCTYPE svg PUBLIC "-//W3C//DTD SVG 1.1//EN" "http://www.w3.org/Graphics/SVG/1.1/DTD/svg11.dtd">
<svg version="1.1" id="Layer_1" xmlns="http://www.w3.org/2000/svg" xmlns:xlink="http://www.w3.org/1999/xlink" x="0px" y="0px"
	 width="16px" height="16px" viewBox="0 0 16 16" enable-background="new 0 0 16 16" xml:space="preserve">
<path fill="#F9F9F9" d="M6,0.4c0.4-0.1,0.8-0.1,1.3-0.1c1.5,0,3,0.5,4.2,1.4c-0.6,0.2-1.2,0.5-1.7,1c-0.1,0-0.2,0.1-0.2,0.1
	C8.9,2.5,8.1,2.2,7.2,2.2c-0.1,0-0.2,0-0.3,0C6.8,1.6,6.5,0.9,6,0.4z M11.7,9.4c-0.2,0.5-0.5,1-1,1.399c-0.3,0.3-0.8,0.601-1.2,0.8
	c0.2,0.7,0.3,1.4,0.1,2.2c0.9-0.3,1.801-0.899,2.5-1.6c0.9-0.9,1.4-1.9,1.801-3C13.2,9.5,12.5,9.5,11.7,9.4z M3,10.1
	C3,10,3.1,10,3,10.1C2.5,9.1,2.2,8,2.3,6.9C1.6,6.8,0.9,6.5,0.4,6C0,8,0.5,10.2,2,11.9C2.2,11.2,2.5,10.6,3,10.1z M10.4,3.4
	c-1.2,1.2-1.2,3.1,0,4.2c1.199,1.2,3.1,1.2,4.199,0c1.101-1.2,1.2-3.1,0-4.2C13.5,2.2,11.6,2.2,10.4,3.4z M3.7,10.8
	C2.5,12,2.5,13.9,3.7,15c1.2,1.2,3.1,1.2,4.2,0c1.2-1.2,1.2-3.1,0-4.2C6.8,9.6,4.9,9.6,3.7,10.8z M0.9,0.9c-1.2,1.2-1.2,3.1,0,4.2
	C2,6.3,4,6.3,5.1,5.1c1.2-1.2,1.2-3.1,0-4.2C4-0.3,2-0.3,0.9,0.9z"/>
</svg>
