<?xml version="1.0" encoding="utf-8"?>
<!-- Generator: Adobe Illustrator 15.1.0, SVG Export Plug-In . SVG Version: 6.00 Build 0)  -->
<!DOCTYPE svg PUBLIC "-//W3C//DTD SVG 1.1//EN" "http://www.w3.org/Graphics/SVG/1.1/DTD/svg11.dtd">
<svg version="1.1" id="Layer_1" xmlns="http://www.w3.org/2000/svg" xmlns:xlink="http://www.w3.org/1999/xlink" x="0px" y="0px"
	 width="20px" height="20px" viewBox="0 0 20 20" enable-background="new 0 0 20 20" xml:space="preserve">
<g>
	<path fill="#D2D8D8" stroke="#D2D8D8" stroke-miterlimit="10" d="M10.001,0.457c-4.04,0-7.286,3.276-7.286,7.285
		c0,4.008,7.286,11.801,7.286,11.801s7.284-7.762,7.284-11.801S14.04,0.457,10.001,0.457z M10.001,18.589
		c-0.669-0.731-1.909-2.163-3.15-3.849c-2.291-3.085-3.499-5.504-3.499-7.03c0-3.658,2.989-6.649,6.649-6.649
		c3.657,0,6.648,3.022,6.648,6.681c0,1.494-1.21,3.944-3.5,7.031C11.908,16.426,10.667,17.857,10.001,18.589z"/>
	<path fill="#D2D8D8" stroke="#D2D8D8" stroke-miterlimit="10" d="M10.001,3.956c-1.909,0-3.436,1.527-3.436,3.436
		c0,1.908,1.527,3.436,3.436,3.436c1.907,0,3.435-1.527,3.435-3.436C13.436,5.514,11.908,3.956,10.001,3.956z M11.973,9.395
		c-0.509,0.51-1.21,0.828-1.972,0.828c-0.764,0-1.464-0.318-1.973-0.828C7.52,8.886,7.201,8.187,7.201,7.424
		c0-0.765,0.319-1.464,0.827-1.973c0.508-0.509,1.208-0.828,1.973-0.828c0.762,0,1.463,0.319,1.972,0.828
		C12.481,5.959,12.8,6.659,12.8,7.424C12.8,8.187,12.481,8.886,11.973,9.395z"/>
</g>
</svg>
