<?xml version="1.0" encoding="utf-8"?>
<!-- Generator: Adobe Illustrator 15.1.0, SVG Export Plug-In . SVG Version: 6.00 Build 0)  -->
<!DOCTYPE svg PUBLIC "-//W3C//DTD SVG 1.1//EN" "http://www.w3.org/Graphics/SVG/1.1/DTD/svg11.dtd">
<svg version="1.1" id="Layer_1" xmlns="http://www.w3.org/2000/svg" xmlns:xlink="http://www.w3.org/1999/xlink" x="0px" y="0px"
	 width="20px" height="20px" viewBox="0 0 20 20" enable-background="new 0 0 20 20" xml:space="preserve">
<g>
	<path fill="#999999" d="M13.001,14.533c0,0.864-0.708,1.571-1.572,1.571h-9.41c-0.863,0-1.571-0.707-1.571-1.571v-9.66
		c0-0.864,0.708-1.571,1.571-1.571h9.41c0.864,0,1.572,0.707,1.572,1.571V14.533z"/>
</g>
<path fill="#FFFFFF" d="M9.814,9.541c0,0.329-0.216,0.596-0.487,0.596H4.086C3.817,10.137,3.6,9.87,3.6,9.541l0,0
	c0-0.33,0.218-0.6,0.487-0.6H9.33C9.598,8.94,9.814,9.209,9.814,9.541L9.814,9.541z"/>
<path fill="#FFFFFF" d="M6.708,6.596c0.33,0,0.597,0.216,0.597,0.487v5.241c0,0.269-0.267,0.486-0.597,0.486l0,0
	c-0.33,0-0.6-0.218-0.6-0.486V7.081C6.109,6.812,6.377,6.596,6.708,6.596L6.708,6.596z"/>
</svg>
