<?xml version="1.0" encoding="utf-8"?>
<!-- Generator: Adobe Illustrator 15.1.0, SVG Export Plug-In . SVG Version: 6.00 Build 0)  -->
<!DOCTYPE svg PUBLIC "-//W3C//DTD SVG 1.1//EN" "http://www.w3.org/Graphics/SVG/1.1/DTD/svg11.dtd">
<svg version="1.1" id="Layer_1" xmlns="http://www.w3.org/2000/svg" xmlns:xlink="http://www.w3.org/1999/xlink" x="0px" y="0px"
	 width="24px" height="24px" viewBox="0 0 24 24" enable-background="new 0 0 24 24" xml:space="preserve">
<path id="rect3636" opacity="0.98" fill="none" stroke="#FFFFFF" stroke-width="3" stroke-miterlimit="10" enable-background="new    " d="
	M2.18,1.208h19.677c0.542,0,0.979,0.313,0.979,0.7v20.007c0,0.385-0.437,0.696-0.979,0.696H2.18c-0.541,0-0.978-0.312-0.978-0.696
	V1.908C1.203,1.523,1.641,1.208,2.18,1.208z"/>
<rect id="rect3644_1_" x="4.458" y="5.633" opacity="0.98" fill="#FFFFFF" enable-background="new    " width="3.162" height="3.13"/>
<rect id="rect3644_2_" x="16.822" y="5.907" opacity="0.98" fill="#FFFFFF" enable-background="new    " width="3.161" height="3.131"/>
<rect id="rect3644_3_" x="10.744" y="5.633" opacity="0.98" fill="#FFFFFF" enable-background="new    " width="3.162" height="3.13"/>
<rect id="rect3644_6_" x="4.458" y="10.633" opacity="0.98" fill="#FFFFFF" enable-background="new    " width="3.162" height="3.131"/>
<rect id="rect3644_5_" x="16.822" y="10.907" opacity="0.98" fill="#FFFFFF" enable-background="new    " width="3.161" height="3.131"/>
<rect id="rect3644_4_" x="10.744" y="10.633" opacity="0.98" fill="#FFFFFF" enable-background="new    " width="3.162" height="3.131"/>
<rect id="rect3644_9_" x="4.458" y="15.633" opacity="0.98" fill="#FFFFFF" enable-background="new    " width="3.162" height="3.131"/>
<rect id="rect3644_8_" x="16.822" y="15.907" opacity="0.98" fill="#FFFFFF" enable-background="new    " width="3.161" height="3.131"/>
<rect id="rect3644_7_" x="10.744" y="15.633" opacity="0.98" fill="#FFFFFF" enable-background="new    " width="3.162" height="3.131"/>
</svg>
