<?xml version="1.0" encoding="utf-8"?>
<!-- Generator: Adobe Illustrator 15.1.0, SVG Export Plug-In . SVG Version: 6.00 Build 0)  -->
<!DOCTYPE svg PUBLIC "-//W3C//DTD SVG 1.1//EN" "http://www.w3.org/Graphics/SVG/1.1/DTD/svg11.dtd">
<svg version="1.1" id="Layer_1" xmlns="http://www.w3.org/2000/svg" xmlns:xlink="http://www.w3.org/1999/xlink" x="0px" y="0px"
	 width="16px" height="16px" viewBox="0 0 16 16" enable-background="new 0 0 16 16" xml:space="preserve">
<path fill="#FFFFFF" d="M9,16H1c-0.5,0-1-0.5-1-1V1c0-0.5,0.5-1,1-1h8v2H3C2.4,2,2,2.4,2,3v10c0,0.6,0.4,1,1,1h6V16z M5,7.5v1
	c0,0.5,0.5,1,1,1h4.7L9.6,10.6C9.2,11,9.2,11.6,9.6,12l0.7,0.7c0.4,0.399,1,0.399,1.4,0l4-4c0.399-0.4,0.399-1,0-1.4l-4-4
	c-0.4-0.4-1-0.4-1.4,0L9.6,4C9.2,4.4,9.2,5,9.6,5.4l1,1H6C5.5,6.5,5,7,5,7.5z"/>
</svg>
